<svg width="477" height="139" viewBox="0 0 477 139" fill="none" xmlns="http://www.w3.org/2000/svg">
<path d="M167.495 107V49.7273H178.643V107H167.495ZM173.125 40.8903C171.186 40.8903 169.521 40.244 168.129 38.9513C166.761 37.6339 166.078 36.0678 166.078 34.2532C166.078 32.4137 166.761 30.8477 168.129 29.555C169.521 28.2376 171.186 27.5788 173.125 27.5788C175.064 27.5788 176.717 28.2376 178.084 29.555C179.476 30.8477 180.172 32.4137 180.172 34.2532C180.172 36.0678 179.476 37.6339 178.084 38.9513C176.717 40.244 175.064 40.8903 173.125 40.8903ZM200.591 30.6364V107H189.442V30.6364H200.591ZM222.538 72.9943V107H211.39V30.6364H222.389V59.049H223.098C224.44 55.9666 226.491 53.5181 229.25 51.7035C232.009 49.8888 235.614 48.9815 240.063 48.9815C243.991 48.9815 247.421 49.7894 250.354 51.4052C253.313 53.021 255.599 55.4322 257.215 58.6388C258.856 61.8207 259.676 65.7979 259.676 70.5707V107H248.527V71.913C248.527 67.712 247.446 64.4556 245.283 62.1438C243.121 59.8072 240.113 58.6388 236.26 58.6388C233.625 58.6388 231.264 59.1982 229.175 60.3168C227.112 61.4354 225.484 63.076 224.291 65.2386C223.123 67.3764 222.538 69.9616 222.538 72.9943ZM287.021 108.268C283.392 108.268 280.11 107.597 277.177 106.254C274.244 104.887 271.92 102.911 270.205 100.326C268.514 97.7404 267.669 94.571 267.669 90.8175C267.669 87.5859 268.29 84.9261 269.533 82.8381C270.776 80.75 272.454 79.0969 274.567 77.8789C276.68 76.6609 279.042 75.7411 281.652 75.1197C284.262 74.4982 286.921 74.0259 289.631 73.7028C293.061 73.305 295.845 72.9819 297.983 72.7333C300.121 72.4599 301.675 72.0249 302.644 71.4283C303.614 70.8317 304.098 69.8622 304.098 68.5199V68.2589C304.098 65.0025 303.179 62.4794 301.339 60.6896C299.524 58.8999 296.815 58.005 293.211 58.005C289.457 58.005 286.499 58.8377 284.336 60.5032C282.198 62.1438 280.719 63.9709 279.899 65.9844L269.421 63.598C270.664 60.1179 272.479 57.3089 274.865 55.1712C277.277 53.0085 280.048 51.4425 283.18 50.473C286.312 49.4787 289.606 48.9815 293.061 48.9815C295.348 48.9815 297.772 49.255 300.332 49.8018C302.918 50.3239 305.329 51.2933 307.566 52.7102C309.828 54.1271 311.68 56.1531 313.122 58.788C314.564 61.3981 315.284 64.7912 315.284 68.9673V107H304.397V99.1697H303.949C303.228 100.612 302.147 102.028 300.705 103.42C299.263 104.812 297.412 105.968 295.149 106.888C292.887 107.808 290.178 108.268 287.021 108.268ZM289.445 99.3189C292.527 99.3189 295.162 98.7099 297.349 97.4918C299.562 96.2738 301.24 94.6829 302.383 92.7191C303.551 90.7305 304.136 88.6051 304.136 86.343V78.9602C303.738 79.358 302.967 79.7308 301.824 80.0788C300.705 80.402 299.425 80.6879 297.983 80.9364C296.542 81.1602 295.137 81.3714 293.77 81.5703C292.403 81.7443 291.259 81.8935 290.339 82.0178C288.177 82.2912 286.201 82.7511 284.411 83.3974C282.646 84.0437 281.229 84.9759 280.16 86.1939C279.116 87.3871 278.594 88.978 278.594 90.9666C278.594 93.7259 279.613 95.8139 281.652 97.2308C283.69 98.6229 286.288 99.3189 289.445 99.3189Z" fill="#020821"/>
<path d="M338.872 73.4418V107H325.375V49.7273H338.276V59.4592H338.947C340.265 56.2525 342.365 53.7045 345.249 51.8153C348.157 49.9261 351.749 48.9815 356.024 48.9815C359.977 48.9815 363.42 49.8267 366.353 51.517C369.311 53.2074 371.598 55.6559 373.214 58.8626C374.854 62.0692 375.662 65.9595 375.637 70.5334V107H362.14V72.6214C362.14 68.7933 361.145 65.7979 359.157 63.6353C357.193 61.4727 354.471 60.3913 350.991 60.3913C348.629 60.3913 346.529 60.9134 344.689 61.9574C342.875 62.9766 341.445 64.4556 340.401 66.3945C339.382 68.3335 338.872 70.6825 338.872 73.4418ZM410.514 108.119C404.772 108.119 399.813 106.925 395.637 104.539C391.485 102.128 388.291 98.7223 386.054 94.3224C383.817 89.8977 382.698 84.69 382.698 78.6992C382.698 72.8079 383.817 67.6374 386.054 63.1879C388.316 58.7134 391.473 55.2333 395.525 52.7475C399.577 50.2369 404.337 48.9815 409.806 48.9815C413.335 48.9815 416.666 49.5533 419.799 50.6967C422.956 51.8153 425.74 53.5554 428.151 55.9169C430.587 58.2784 432.501 61.2862 433.893 64.9403C435.285 68.5696 435.981 72.8949 435.981 77.9162V82.055H389.037V72.957H423.043C423.018 70.3718 422.458 68.0724 421.365 66.0589C420.271 64.0206 418.742 62.4173 416.778 61.2489C414.839 60.0806 412.577 59.4964 409.992 59.4964C407.233 59.4964 404.809 60.1676 402.721 61.5099C400.633 62.8274 399.005 64.5675 397.837 66.7301C396.693 68.8679 396.109 71.217 396.084 73.7773V81.7195C396.084 85.0504 396.693 87.9091 397.911 90.2955C399.129 92.657 400.832 94.4716 403.019 95.7393C405.207 96.9822 407.767 97.6037 410.701 97.6037C412.664 97.6037 414.442 97.3303 416.033 96.7834C417.623 96.2116 419.003 95.3789 420.171 94.2852C421.34 93.1914 422.222 91.8366 422.819 90.2209L435.422 91.6378C434.626 94.9687 433.11 97.8771 430.873 100.363C428.66 102.824 425.827 104.738 422.371 106.105C418.916 107.447 414.964 108.119 410.514 108.119ZM471.799 49.7273V60.1676H438.875V49.7273H471.799ZM447.003 36.0057H460.501V89.7734C460.501 91.5881 460.775 92.9801 461.322 93.9496C461.893 94.8942 462.639 95.5405 463.559 95.8885C464.479 96.2365 465.498 96.4105 466.616 96.4105C467.462 96.4105 468.232 96.3484 468.928 96.2241C469.649 96.0998 470.196 95.9879 470.569 95.8885L472.843 106.441C472.122 106.689 471.091 106.963 469.748 107.261C468.431 107.559 466.815 107.733 464.901 107.783C461.521 107.882 458.475 107.373 455.766 106.254C453.056 105.111 450.906 103.346 449.315 100.96C447.749 98.5732 446.979 95.5902 447.003 92.0107V36.0057Z" fill="#395FEA"/>
<ellipse cx="70.5" cy="69.5" rx="70.5" ry="69.5" fill="#020821"/>
<path d="M75.9391 23.6488C75.9224 23.6465 75.9053 23.6453 75.8883 23.6432C75.8833 23.6428 75.8783 23.6422 75.8733 23.6413C75.0455 23.5362 74.2071 23.4823 73.3791 23.4823H67.4395C66.2337 23.4823 65.0454 23.6273 63.8912 23.9097L56.3134 16.6249C55.4218 15.7678 54.0039 15.7956 53.1468 16.6874C52.2896 17.5789 52.3176 18.9968 53.2093 19.8539L59.4139 25.8185C58.5225 26.3868 57.696 27.0509 56.9426 27.7993L52.058 23.1042C51.1663 22.247 49.7485 22.2752 48.8913 23.1667C48.0342 24.0582 48.0622 25.4762 48.9538 26.3333L54.2509 31.4252C53.1165 33.562 52.5215 35.9382 52.5215 38.3979V48.3709V60.232V102.763V120.76C52.5215 121.507 52.894 122.205 53.5144 122.62C53.8887 122.871 54.3236 123 54.7614 123C55.0492 123 55.3387 122.944 55.6124 122.831C61.7528 120.307 65.8786 113.579 65.8786 106.088C65.8786 105.022 65.795 103.964 65.6322 102.927C70.7193 100.911 75.1097 97.5431 78.412 93.0932C82.1961 87.9942 84.1963 81.9334 84.1963 75.5663C84.1963 68.9611 81.9616 62.5294 77.8896 57.3598V56.6484C83.3579 55.7301 88.9139 51.7454 90.1979 46.5766H92.4943C93.7313 46.5766 94.734 45.5739 94.734 44.3369V42.4355C94.734 32.3136 84.9754 24.8024 75.9391 23.6488ZM57.0009 116.716V104.198C58.3372 103.526 59.6011 102.703 60.7852 101.736C60.8159 101.843 60.8508 101.948 60.8793 102.056C61.2247 103.353 61.3996 104.71 61.3996 106.089C61.3994 110.344 59.7192 114.247 57.0009 116.716ZM79.7174 75.5671C79.7174 85.7326 73.6589 94.7208 64.4328 98.581C64.3791 98.4485 64.3246 98.316 64.268 98.1849C67.8867 93.6195 69.8652 87.7545 69.8652 81.4975C69.8652 77.6026 69.1049 73.8748 67.6054 70.4169C67.1131 69.2821 65.794 68.7611 64.6596 69.2535C63.5248 69.7455 63.0038 71.0646 63.496 72.1993C64.7499 75.0911 65.3858 78.2194 65.3858 81.4975C65.3858 87.1075 63.4078 92.5212 59.9589 96.3503C59.0454 97.3649 58.0565 98.2466 57.0005 98.9902V60.2325V48.3713V38.3984C57.0005 36.2153 57.6661 34.1269 58.9263 32.3572C60.1957 30.5723 61.9532 29.2519 64.0113 28.5378C65.1072 28.1556 66.2604 27.9619 67.4395 27.9619H73.3791C73.3893 27.9619 73.4 27.9623 73.4104 27.9623V44.3379V52.7976C73.0746 52.522 72.7346 52.2513 72.3866 51.9905C71.3968 51.2486 69.9931 51.4495 69.2512 52.4392C68.5093 53.429 68.7099 54.8327 69.6995 55.5746C71.2616 56.7458 72.685 58.0958 73.9306 59.5873C77.6624 64.0571 79.7174 69.7323 79.7174 75.5671ZM77.8898 52.0798V46.5774H85.4567C84.2187 49.1719 81.0281 51.323 77.8898 52.0798ZM88.2347 42.0982H77.89V28.6158C84.138 30.3959 90.0483 35.6749 90.2498 42.0982H88.2347Z" fill="white"/>
<path d="M64.2629 64.803C63.9697 64.4329 63.6631 64.068 63.3511 63.7185C62.5271 62.7961 61.1114 62.716 60.1888 63.5401C59.2663 64.3643 59.1863 65.78 60.0105 66.7024C60.2632 66.9854 60.5116 67.2811 60.7493 67.5814C61.1913 68.1405 61.846 68.4318 62.5077 68.4318C62.9942 68.4318 63.484 68.274 63.8953 67.9486C64.8656 67.1814 65.0299 65.7731 64.2629 64.803Z" fill="#395FEA"/>
<path d="M68.4274 33.8745C67.1905 33.8745 66.1877 34.8774 66.1877 36.1141V37.5676C66.1877 38.8046 67.1905 39.8073 68.4274 39.8073C69.6644 39.8073 70.6671 38.8046 70.6671 37.5676V36.1141C70.6671 34.8774 69.6644 33.8745 68.4274 33.8745Z" fill="#395FEA"/>
</svg>
