<svg width="334" height="331" viewBox="0 0 234 231" fill="none" xmlns="http://www.w3.org/2000/svg">
<path d="M230.487 115.087C230.487 176.951 179.603 227.175 116.743 227.175C53.8841 227.175 3 176.951 3 115.087C3 53.2235 53.8841 3 116.743 3C179.603 3 230.487 53.2235 230.487 115.087Z" fill="#020821" stroke="white" stroke-width="6"/>
<path d="M125.75 39.1609C125.722 39.1571 125.694 39.155 125.666 39.1516C125.658 39.1509 125.649 39.1498 125.641 39.1484C124.27 38.9744 122.882 38.8851 121.511 38.8851H111.675C109.679 38.8851 107.711 39.1253 105.8 39.5928L93.2512 27.5297C91.7749 26.1105 89.4268 26.1565 88.0076 27.6331C86.5881 29.1095 86.6344 31.4575 88.1111 32.8767L98.3854 42.7537C96.9095 43.6947 95.5408 44.7945 94.2932 46.0338L86.2046 38.2591C84.728 36.8395 82.3803 36.8862 80.9607 38.3625C79.5415 39.8388 79.5879 42.1869 81.0642 43.6061L89.8359 52.038C87.9575 55.5765 86.9722 59.5112 86.9722 63.5844V80.099V99.7402V170.168V199.971C86.9722 201.207 87.5889 202.363 88.6164 203.051C89.2362 203.467 89.9563 203.679 90.6813 203.679C91.1579 203.679 91.6372 203.587 92.0905 203.401C102.259 199.221 109.091 188.079 109.091 175.675C109.091 173.909 108.952 172.158 108.683 170.44C117.106 167.102 124.377 161.525 129.845 154.156C136.111 145.713 139.424 135.676 139.424 125.133C139.424 114.195 135.723 103.545 128.98 94.9839V93.8059C138.035 92.2853 147.236 85.6869 149.362 77.1277H153.164C155.213 77.1277 156.873 75.4673 156.873 73.4189V70.2704C156.873 53.5091 140.714 41.0712 125.75 39.1609ZM94.3898 193.275V172.545C96.6025 171.432 98.6955 170.07 100.656 168.468C100.707 168.645 100.765 168.819 100.812 168.997C101.384 171.145 101.674 173.392 101.674 175.676C101.673 182.723 98.891 189.186 94.3898 193.275ZM132.007 125.134C132.007 141.967 121.974 156.851 106.697 163.243C106.608 163.024 106.517 162.805 106.423 162.588C112.416 155.028 115.692 145.316 115.692 134.954C115.692 128.505 114.433 122.332 111.95 116.606C111.135 114.727 108.95 113.864 107.072 114.679C105.193 115.494 104.33 117.678 105.145 119.557C107.221 124.346 108.275 129.526 108.275 134.954C108.275 144.244 104.999 153.209 99.288 159.55C97.7753 161.23 96.1377 162.69 94.3891 163.921V99.7409V80.0997V63.5851C94.3891 59.9701 95.4913 56.5119 97.5781 53.5814C99.6801 50.6257 102.59 48.4392 105.999 47.2567C107.813 46.6238 109.723 46.303 111.675 46.303H121.511C121.528 46.303 121.545 46.3037 121.563 46.3037V73.4206V87.4293C121.007 86.9729 120.444 86.5247 119.867 86.0928C118.228 84.8643 115.904 85.1969 114.675 86.8358C113.447 88.4748 113.779 90.7993 115.418 92.0278C118.005 93.9672 120.362 96.2028 122.424 98.6726C128.604 106.074 132.007 115.472 132.007 125.134ZM128.98 86.2406V77.1291H141.511C139.461 81.4255 134.177 84.9875 128.98 86.2406ZM146.111 69.7119H128.981V47.3858C139.327 50.3336 149.114 59.0752 149.448 69.7119H146.111Z" fill="white"/>
<path d="M106.415 107.309C105.93 106.697 105.422 106.092 104.905 105.514C103.541 103.986 101.196 103.854 99.6686 105.218C98.1411 106.583 98.0085 108.927 99.3734 110.455C99.7918 110.923 100.203 111.413 100.597 111.91C101.329 112.836 102.413 113.318 103.509 113.318C104.314 113.318 105.125 113.057 105.806 112.518C107.413 111.248 107.685 108.916 106.415 107.309Z" fill="#395FEA"/>
<path d="M113.311 56.0938C111.263 56.0938 109.603 57.7546 109.603 59.8026V62.2095C109.603 64.2579 111.263 65.9183 113.311 65.9183C115.36 65.9183 117.02 64.2579 117.02 62.2095V59.8026C117.02 57.7546 115.36 56.0938 113.311 56.0938Z" fill="#395FEA"/>
</svg>
